<?xml version="1.0" standalone="no"?>
<!DOCTYPE svg PUBLIC "-//W3C//DTD SVG 20010904//EN"
 "http://www.w3.org/TR/2001/REC-SVG-20010904/DTD/svg10.dtd">
<svg version="1.0" xmlns="http://www.w3.org/2000/svg"
 width="1748.000000pt" height="431.000000pt" viewBox="0 0 1748.000000 431.000000"
 preserveAspectRatio="xMidYMid meet">

<g transform="translate(0.000000,431.000000) scale(0.100000,-0.100000)"
fill="#000000" stroke="none">
<path d="M0 2155 l0 -2155 8740 0 8740 0 0 956 c0 525 -4 953 -8 950 -4 -2
-14 -1 -21 4 -10 6 -8 9 8 15 19 6 21 14 21 80 0 71 -1 74 -28 83 l-27 10 27
1 28 1 0 1105 0 1105 -2264 0 c-2249 0 -2264 0 -2269 -20 -7 -26 -27 -26 -27
-1 0 20 -16 20 -960 21 -528 0 -960 -2 -960 -5 0 -3 12 -10 27 -16 28 -10 22
-24 -12 -31 -11 -2 -21 -12 -23 -23 -3 -18 -9 -20 -77 -15 -40 3 -76 7 -78 10
-3 3 -9 20 -14 39 -5 19 -14 36 -20 38 -7 3 -9 -4 -6 -18 l6 -23 -23 22 -24
22 -5378 0 -5378 0 0 -2155z m12044 2139 c24 -9 19 -24 -8 -24 -28 0 -43 16
-24 23 7 3 14 6 15 6 1 1 8 -2 17 -5z m471 -14 c-3 -5 -13 -10 -21 -10 -8 0
-14 -5 -14 -12 0 -9 -3 -9 -11 -1 -16 16 -2 33 27 33 14 0 22 -4 19 -10z
m4015 -10 c0 -5 -5 -10 -11 -10 -5 0 -7 5 -4 10 3 6 8 10 11 10 2 0 4 -4 4
-10z m-3365 -30 c3 -5 -1 -10 -10 -10 -9 0 -13 5 -10 10 3 6 8 10 10 10 2 0 7
-4 10 -10z m1955 -29 c0 -10 -9 -21 -19 -24 -25 -6 -30 -1 -24 24 7 25 43 25
43 0z m-1460 -1 c0 -5 1 -13 3 -17 1 -5 -13 -9 -30 -10 -24 -1 -33 3 -33 14 0
9 6 13 15 10 8 -4 17 -2 20 3 8 13 25 13 25 0z m1700 -9 c0 -15 -37 -23 -62
-14 -20 6 -18 8 17 14 22 3 41 7 43 8 1 0 2 -3 2 -8z m-3025 -85 c9 4 16 -3
20 -19 7 -26 28 -41 65 -46 18 -2 11 -19 -10 -24 -29 -7 -102 67 -99 100 0 4
3 3 5 -4 3 -7 12 -9 19 -7z m-31 -31 c10 -7 16 -17 15 -22 -2 -4 -15 2 -28 15
-26 24 -17 30 13 7z m3631 5 c3 -5 1 -10 -4 -10 -6 0 -11 5 -11 10 0 6 2 10 4
10 3 0 8 -4 11 -10z m-5215 -20 c0 -5 -2 -10 -4 -10 -3 0 -8 5 -11 10 -3 6 -1
10 4 10 6 0 11 -4 11 -10z m4777 4 c-3 -3 -12 -4 -19 -1 -8 3 -5 6 6 6 11 1
17 -2 13 -5z m-5807 -8 c0 -3 -4 -8 -10 -11 -5 -3 -10 -1 -10 4 0 6 5 11 10
11 6 0 10 -2 10 -4z m6276 -8 c66 -24 55 -68 -17 -68 -27 0 -52 -1 -56 -2 -18
-7 -12 30 9 54 27 32 24 31 64 16z m-3766 -22 c0 -14 -45 -28 -55 -18 -6 6 33
31 48 32 4 0 7 -6 7 -14z m865 4 c3 -5 1 -10 -4 -10 -6 0 -11 5 -11 10 0 6 2
10 4 10 3 0 8 -4 11 -10z m-335 -25 c0 -19 -43 -30 -68 -16 -26 14 -72 14 -72
1 0 -5 -17 -10 -37 -9 -29 0 -33 2 -18 8 11 5 26 6 33 3 7 -2 12 -1 11 4 -4
21 5 24 76 24 60 0 75 -3 75 -15z m-1085 -55 c-3 -5 -17 -10 -31 -10 -14 0
-22 4 -19 10 3 6 17 10 31 10 14 0 22 -4 19 -10z m798 3 c-7 -2 -19 -2 -25 0
-7 3 -2 5 12 5 14 0 19 -2 13 -5z m-47 -30 c-10 -10 -19 5 -10 18 6 11 8 11
12 0 2 -7 1 -15 -2 -18z m-2429 1 c-3 -3 -12 -4 -19 -1 -8 3 -5 6 6 6 11 1 17
-2 13 -5z m2656 -1 c-7 -2 -19 -2 -25 0 -7 3 -2 5 12 5 14 0 19 -2 13 -5z
m2214 1 c-3 -3 -12 -4 -19 -1 -8 3 -5 6 6 6 11 1 17 -2 13 -5z m-3287 -44 c0
-5 -7 -10 -15 -10 -8 0 -15 5 -15 10 0 6 7 10 15 10 8 0 15 -4 15 -10z m814 1
c4 -5 -3 -7 -14 -4 -23 6 -26 13 -6 13 8 0 17 -4 20 -9z m-109 -32 c-8 -12
-45 -12 -45 0 0 10 30 20 43 14 4 -3 5 -9 2 -14z m-2601 -10 c-3 -5 -10 -6
-16 -3 -6 4 -14 0 -19 -7 -8 -12 -11 -12 -19 1 -7 12 -4 16 18 21 31 6 45 2
36 -12z m5266 -23 c0 -11 -19 -15 -25 -6 -3 5 1 10 9 10 9 0 16 -2 16 -4z
m-3416 -111 c-22 -16 -34 -19 -34 -7 0 10 43 32 49 26 3 -2 -4 -11 -15 -19z
m425 4 c-9 -5 -4 -10 17 -14 52 -12 50 -13 -29 -13 -82 0 -104 9 -59 26 52 20
103 21 71 1z m371 11 c0 -5 -8 -10 -17 -10 -15 0 -16 2 -3 10 19 12 20 12 20
0z m4035 1 c3 -5 1 -12 -5 -16 -5 -3 -10 1 -10 9 0 18 6 21 15 7z m-3768 -33
c-3 -8 -6 -5 -6 6 -1 11 2 17 5 13 3 -3 4 -12 1 -19z m1593 6 c0 -17 -22 -14
-28 4 -2 7 3 12 12 12 9 0 16 -7 16 -16z m405 6 c-3 -5 -10 -10 -16 -10 -5 0
-9 5 -9 10 0 6 7 10 16 10 8 0 12 -4 9 -10z m-609 -26 c19 -15 19 -16 -1 -9
-11 4 -25 8 -32 8 -7 0 -10 4 -7 9 8 12 18 10 40 -8z m-1176 -4 c0 -5 -4 -10
-10 -10 -5 0 -10 5 -10 10 0 6 5 10 10 10 6 0 10 -4 10 -10z m3427 4 c-3 -3
-12 -4 -19 -1 -8 3 -5 6 6 6 11 1 17 -2 13 -5z m-2328 -13 c11 -7 9 -14 -12
-34 -30 -27 -35 -47 -12 -47 8 0 15 -8 15 -18 0 -18 -31 -24 -46 -9 -4 3 -20
-1 -36 -9 -23 -12 -27 -18 -18 -28 15 -19 -13 -28 -58 -20 -35 7 -35 7 -29
-25 7 -32 -2 -38 -37 -25 -22 8 -20 27 4 42 12 7 17 18 13 28 -9 23 17 64 41
64 17 0 18 2 6 10 -17 10 -55 4 -85 -14 -12 -7 -30 -9 -45 -5 -14 4 -19 7 -12
8 7 1 32 10 55 21 35 18 53 20 113 14 58 -5 73 -3 87 11 9 9 17 23 17 31 0 16
18 18 39 5z m364 -7 c-3 -8 -12 -13 -20 -10 -8 3 -20 6 -26 7 -7 1 -1 5 13 9
37 12 40 11 33 -6z m776 -19 c17 4 33 11 36 16 9 14 35 11 35 -4 0 -8 -9 -22
-20 -32 -15 -14 -25 -15 -48 -7 -15 5 -45 8 -65 7 -42 -4 -50 14 -14 31 17 8
25 7 34 -4 8 -9 21 -12 42 -7z m-3379 5 c0 -5 -5 -10 -11 -10 -5 0 -7 5 -4 10
3 6 8 10 11 10 2 0 4 -4 4 -10z m260 -10 c0 -5 -5 -12 -11 -16 -14 -8 -33 11
-25 25 7 11 36 4 36 -9z m-428 -10 c18 -11 45 -20 59 -20 15 0 32 -6 38 -14
10 -12 8 -17 -9 -26 -28 -15 -91 -25 -139 -22 -20 2 -22 5 -13 14 7 7 12 29
12 50 0 43 7 46 52 18z m1152 -6 c10 -25 7 -34 -9 -34 -9 0 -15 9 -15 25 0 28
15 34 24 9z m187 5 c12 -6 28 -7 37 -3 18 8 120 6 165 -2 16 -3 27 -12 28 -22
1 -15 2 -15 6 1 6 21 26 22 44 1 8 -10 22 -14 39 -10 37 7 70 -3 70 -21 0 -13
3 -13 25 1 21 14 55 22 55 13 0 -13 -49 -99 -49 -87 -2 30 -38 48 -113 55 -71
7 -74 6 -101 -20 -17 -18 -34 -26 -46 -22 -14 3 -18 1 -14 -9 3 -9 -2 -14 -17
-14 -12 0 -30 -5 -41 -10 -16 -9 -19 -7 -19 10 0 11 -4 20 -10 20 -5 0 -10 -8
-10 -19 0 -12 -9 -20 -27 -24 -35 -7 -40 -1 -25 23 11 17 10 20 -8 20 -11 0
-20 5 -20 11 0 20 -69 40 -105 30 -28 -7 -35 -7 -35 5 0 8 9 14 20 14 11 0 20
5 20 10 0 6 -9 10 -20 10 -15 0 -20 7 -20 25 0 24 2 25 76 25 41 0 84 -5 95
-11z m759 -9 c0 -5 -2 -10 -4 -10 -3 0 -8 5 -11 10 -3 6 -1 10 4 10 6 0 11 -4
11 -10z m756 -26 c-18 -18 -26 -18 -26 0 0 15 20 26 33 19 4 -2 1 -11 -7 -19z
m-3372 5 c21 -10 23 -14 13 -30 -16 -25 -32 -24 -51 3 -25 35 -7 47 38 27z
m451 1 c3 -5 -1 -10 -10 -10 -9 0 -13 5 -10 10 3 6 8 10 10 10 2 0 7 -4 10
-10z m5310 0 c3 -5 0 -10 -9 -10 -8 0 -17 -6 -19 -12 -3 -7 -6 -3 -6 10 -1 22
22 31 34 12z m-4905 -30 c0 -13 -5 -18 -15 -14 -16 7 -19 17 -8 27 12 13 23 7
23 -13z m1550 13 c-1 -13 -29 -47 -35 -42 -9 10 8 49 21 49 8 0 14 -3 14 -7z
m-2980 -13 c0 -5 -4 -10 -10 -10 -5 0 -10 5 -10 10 0 6 5 10 10 10 6 0 10 -4
10 -10z m2027 -24 c-3 -7 -1 -18 4 -23 5 -5 -10 -9 -39 -10 l-47 -1 32 14 c17
7 34 18 38 24 9 15 18 12 12 -4z m1033 -1 c0 -11 -11 -15 -40 -15 -29 0 -40 4
-40 15 0 11 11 15 40 15 29 0 40 -4 40 -15z m-2120 -35 c12 -8 10 -10 -11 -10
-18 0 -28 6 -32 20 -5 20 1 19 43 -10z m1275 10 c3 -5 1 -10 -4 -10 -6 0 -11
5 -11 10 0 6 2 10 4 10 3 0 8 -4 11 -10z m-1155 -25 c0 -16 -6 -25 -15 -25
-18 0 -19 16 -2 35 16 19 17 19 17 -10z m245 5 c-9 -15 24 -32 50 -26 31 8 32
-4 3 -24 -34 -22 -58 -31 -58 -20 0 6 4 10 9 10 5 0 3 14 -5 30 -9 17 -21 30
-27 30 -7 0 -6 4 3 9 16 11 33 4 25 -9z m-415 1 c0 -6 -4 -13 -10 -16 -5 -3
-10 1 -10 9 0 9 5 16 10 16 6 0 10 -4 10 -9z m2218 2 c-10 -2 -28 -2 -40 0
-13 2 -5 4 17 4 22 1 32 -1 23 -4z m-1044 -12 c26 -10 3 -25 -24 -16 -22 7
-28 -13 -9 -32 7 -7 0 -15 -25 -27 -41 -19 -47 -43 -13 -55 17 -6 29 -3 50 15
51 43 77 27 32 -19 -32 -31 -61 -39 -76 -21 -6 8 -16 14 -21 14 -6 0 -23 15
-39 32 -26 31 -29 32 -62 20 -43 -16 -69 -15 -40 1 16 9 20 16 13 27 -12 19 5
30 49 30 28 0 32 2 21 14 -10 13 -3 16 47 19 32 2 63 4 68 4 6 1 19 -2 29 -6z
m570 -38 c6 -20 4 -23 -18 -23 -29 0 -31 7 -14 45 12 27 19 23 32 -22z m358 7
c-16 -27 -15 -50 3 -50 8 0 15 5 15 10 0 15 39 12 56 -4 12 -13 10 -15 -13
-18 -35 -4 -42 -33 -14 -57 24 -21 29 -40 6 -21 -9 8 -29 10 -50 7 -20 -3 -50
0 -68 7 -17 8 -58 13 -89 12 -31 -1 -54 2 -52 6 3 4 -7 10 -21 14 -14 3 -25
12 -25 19 0 8 -8 11 -20 8 -11 -3 -20 -1 -20 5 0 12 58 22 173 28 82 5 87 7
87 28 0 28 20 50 34 36 7 -7 7 -17 -2 -30z m2928 30 c0 -5 -13 -10 -30 -10
-16 0 -30 5 -30 10 0 6 14 10 30 10 17 0 30 -4 30 -10z m-3690 -20 c0 -5 -4
-10 -10 -10 -5 0 -10 5 -10 10 0 6 5 10 10 10 6 0 10 -4 10 -10z m495 0 c-3
-5 -13 -10 -21 -10 -8 0 -14 5 -14 10 0 6 9 10 21 10 11 0 17 -4 14 -10z
m2602 4 c-3 -3 -12 -4 -19 -1 -8 3 -5 6 6 6 11 1 17 -2 13 -5z m-1357 -56 c0
-6 -6 -5 -15 2 -8 7 -15 14 -15 16 0 2 7 1 15 -2 8 -4 15 -11 15 -16z m-1700
2 c0 -5 -4 -10 -10 -10 -5 0 -10 5 -10 10 0 6 5 10 10 10 6 0 10 -4 10 -10z
m978 -7 c-2 -10 -10 -18 -18 -18 -8 0 -16 8 -18 18 -2 12 3 17 18 17 15 0 20
-5 18 -17z m-2488 -7 c0 -3 -4 -8 -10 -11 -5 -3 -10 -1 -10 4 0 6 5 11 10 11
6 0 10 -2 10 -4z m1385 -5 c7 -12 -12 -24 -25 -16 -11 7 -4 25 10 25 5 0 11
-4 15 -9z m175 -11 c0 -14 -15 -19 -29 -10 -17 10 -5 31 14 23 8 -3 15 -9 15
-13z m817 -7 c-3 -3 -11 -2 -17 2 -9 6 -9 10 1 16 14 8 27 -7 16 -18z m2908
17 c3 -5 -1 -10 -9 -10 -9 0 -16 5 -16 10 0 6 4 10 9 10 6 0 13 -4 16 -10z
m975 0 c0 -5 -5 -10 -11 -10 -5 0 -7 5 -4 10 3 6 8 10 11 10 2 0 4 -4 4 -10z
m-5960 -15 c0 -8 -7 -15 -15 -15 -9 0 -12 6 -9 15 4 8 10 15 15 15 5 0 9 -7 9
-15z m4010 7 c0 -13 -12 -22 -22 -16 -10 6 -1 24 13 24 5 0 9 -4 9 -8z m1093
-33 c18 -19 24 -44 7 -34 -6 4 -23 0 -38 -8 -24 -11 -30 -11 -41 0 -7 8 -10
17 -7 20 3 3 -2 12 -12 19 -15 12 -15 15 -2 23 19 13 71 2 93 -20z m-3010 -9
c7 0 23 -9 37 -20 22 -17 23 -19 7 -25 -9 -4 -25 -4 -34 0 -10 5 -25 7 -33 7
-8 -1 -22 3 -30 8 -13 9 -11 13 10 30 14 10 27 15 28 10 2 -6 9 -10 15 -10z
m-1248 -62 c5 -18 3 -28 -4 -28 -6 0 -14 0 -18 0 -6 0 -7 21 -4 62 2 19 19 -3
26 -34z m4135 38 c0 -3 -4 -8 -10 -11 -5 -3 -10 -1 -10 4 0 6 5 11 10 11 6 0
10 -2 10 -4z m-6708 -42 c-5 -27 -9 -29 -28 -13 -13 10 -18 11 -21 2 -5 -15
-33 -5 -33 12 0 17 42 34 65 25 12 -5 19 -15 17 -26z m4012 3 c-4 -12 -16 -16
-44 -14 -49 3 -61 14 -24 22 16 3 36 10 44 15 19 10 32 -2 24 -23z m3029 26
c-7 -2 -19 -2 -25 0 -7 3 -2 5 12 5 14 0 19 -2 13 -5z m-4003 -24 c0 -5 -13
-9 -30 -9 -35 0 -41 17 -7 22 26 5 37 1 37 -13z m870 11 c0 -5 -4 -10 -10 -10
-5 0 -10 5 -10 10 0 6 5 10 10 10 6 0 10 -4 10 -10z m200 -5 c-9 -8 -24 -12
-38 -9 -35 10 -26 24 15 24 33 0 36 -2 23 -15z m2130 5 c0 -5 -9 -9 -20 -7
-31 5 -36 17 -7 17 15 0 27 -4 27 -10z m1275 0 c3 -5 -1 -10 -9 -10 -9 0 -16
5 -16 10 0 6 4 10 9 10 6 0 13 -4 16 -10z m-5859 -27 c-10 -10 -19 5 -10 18 6
11 8 11 12 0 2 -7 1 -15 -2 -18z m1154 3 c0 -3 -4 -8 -10 -11 -5 -3 -10 -1
-10 4 0 6 5 11 10 11 6 0 10 -2 10 -4z m330 0 c0 -2 -11 -6 -25 -8 -13 -3 -22
-1 -19 3 5 9 44 13 44 5z m3630 -6 c0 -5 -12 -10 -27 -10 -22 0 -25 2 -13 10
20 13 40 13 40 0z m-5124 -37 c-10 -10 -19 5 -10 18 6 11 8 11 12 0 2 -7 1
-15 -2 -18z m1207 12 c-3 -9 -8 -14 -10 -11 -3 3 -2 9 2 15 9 16 15 13 8 -4z
m1370 -46 c20 -7 37 -17 37 -21 0 -12 -38 -9 -42 3 -3 8 -11 8 -27 -2 -19 -11
-25 -11 -28 -1 -3 6 -12 12 -21 12 -14 0 -15 2 -2 10 21 13 10 19 -48 24 -29
2 -51 8 -50 12 2 5 22 8 46 6 28 -2 42 1 42 9 0 7 12 1 28 -13 15 -14 44 -32
65 -39z m-898 11 c-3 -5 -10 -10 -16 -10 -5 0 -9 5 -9 10 0 6 7 10 16 10 8 0
12 -4 9 -10z m-2385 -10 c0 -5 -5 -10 -11 -10 -5 0 -7 5 -4 10 3 6 8 10 11 10
2 0 4 -4 4 -10z m2458 -6 c12 -4 22 -11 22 -16 0 -5 -5 -6 -12 -2 -6 4 -25 11
-42 15 -19 4 -23 7 -11 8 11 0 30 -2 43 -5z m-1968 -30 c0 -21 -17 -17 -23 5
-3 14 -1 18 9 14 8 -3 14 -11 14 -19z m237 20 c-3 -3 -12 -4 -19 -1 -8 3 -5 6
6 6 11 1 17 -2 13 -5z m1083 -9 c0 -8 -7 -15 -16 -15 -14 0 -14 3 -4 15 7 8
14 15 16 15 2 0 4 -7 4 -15z m-1015 -15 c3 -5 -3 -10 -14 -10 -25 0 -27 -15
-5 -28 14 -8 13 -10 -7 -15 -39 -9 -74 -1 -77 16 -2 11 6 18 25 22 15 4 35 10
43 15 20 12 28 12 35 0z m5645 0 c0 -5 -5 -10 -11 -10 -5 0 -7 5 -4 10 3 6 8
10 11 10 2 0 4 -4 4 -10z m-3925 -10 c3 -5 -1 -10 -9 -10 -9 0 -16 5 -16 10 0
6 4 10 9 10 6 0 13 -4 16 -10z m297 -2 c21 -6 37 -16 35 -22 -5 -13 -51 -9
-55 4 -2 6 -11 10 -20 10 -9 0 -24 5 -32 10 -22 14 22 13 72 -2z m538 2 c0 -5
-2 -10 -4 -10 -3 0 -8 5 -11 10 -3 6 -1 10 4 10 6 0 11 -4 11 -10z m2702 -2
c-9 -9 -15 -9 -24 0 -9 9 -7 12 12 12 19 0 21 -3 12 -12z m-3403 -16 c-7 -3
-17 -10 -21 -16 -5 -7 -8 -5 -8 5 0 22 9 29 28 21 13 -5 14 -6 1 -10z m-922 2
c-3 -3 -12 -4 -19 -1 -8 3 -5 6 6 6 11 1 17 -2 13 -5z m1703 -4 c0 -5 -2 -10
-4 -10 -3 0 -8 5 -11 10 -3 6 -1 10 4 10 6 0 11 -4 11 -10z m969 -12 c12 -15
11 -18 -3 -18 -10 0 -16 8 -16 22 0 12 1 19 3 17 1 -2 9 -12 16 -21z m826 12
c-3 -5 -12 -10 -20 -10 -8 0 -17 5 -20 10 -4 6 5 10 20 10 15 0 24 -4 20 -10z
m-2655 -14 c0 -15 45 -30 60 -21 6 4 10 1 10 -4 0 -6 -21 -11 -49 -11 -34 0
-51 -4 -55 -15 -3 -8 -10 -15 -16 -15 -16 0 -12 30 5 36 8 4 15 15 15 25 0 10
7 19 15 19 8 0 15 -6 15 -14z m-2722 -8 c-2 -6 -10 -14 -16 -16 -7 -2 -10 2
-6 12 7 18 28 22 22 4z m797 -6 c-3 -3 -11 0 -18 7 -9 10 -8 11 6 5 10 -3 15
-9 12 -12z m880 8 c-4 -7 3 -8 21 -4 19 5 25 4 20 -5 -4 -6 -11 -9 -16 -6 -5
3 -11 1 -15 -5 -3 -5 -18 -10 -32 -10 -15 0 -35 -7 -45 -17 -24 -21 -78 -28
-78 -9 0 16 21 26 55 26 13 0 28 6 32 14 7 12 26 21 56 25 5 0 5 -4 2 -9z
m-1928 -6 c-3 -3 -12 -4 -19 -1 -8 3 -5 6 6 6 11 1 17 -2 13 -5z m3131 -1
c-10 -2 -26 -2 -35 0 -10 3 -2 5 17 5 19 0 27 -2 18 -5z m218 -41 c-9 -9 -36
13 -36 30 0 19 1 19 19 -3 11 -13 18 -25 17 -27z m-2361 28 c-3 -5 -20 -10
-37 -10 -23 0 -29 -4 -24 -15 4 -11 -2 -15 -27 -15 -18 0 -52 -9 -75 -20 -44
-22 -77 -26 -87 -11 -6 11 29 33 38 24 4 -3 12 -1 19 5 7 5 31 13 53 17 22 4
51 14 65 21 30 16 84 19 75 4z m3033 -33 c12 -11 22 -26 22 -32 0 -6 11 -21
25 -33 13 -12 31 -38 40 -58 8 -21 31 -57 50 -80 39 -47 44 -59 18 -46 -10 6
-37 13 -60 17 -39 6 -44 5 -52 -17 -7 -19 -9 -16 -12 24 -3 34 0 49 9 53 20 8
37 -6 21 -16 -8 -5 -9 -9 -4 -9 20 0 38 17 26 24 -6 4 -11 19 -11 34 0 42 -13
56 -38 43 -18 -9 -23 -8 -32 8 -5 11 -10 29 -10 41 0 14 -11 26 -32 35 -18 8
-28 15 -23 15 6 1 -3 8 -20 16 -30 14 -30 14 15 8 25 -3 55 -15 68 -27z m2362
23 c0 -5 -4 -10 -9 -10 -6 0 -13 5 -16 10 -3 6 1 10 9 10 9 0 16 -4 16 -10z
m-2940 -30 c0 -11 -7 -20 -15 -20 -13 0 -13 3 -3 20 7 11 14 20 15 20 2 0 3
-9 3 -20z m101 3 c13 -17 13 -17 -6 -3 -11 8 -22 16 -24 17 -2 2 0 3 6 3 6 0
17 -8 24 -17z m1479 7 c11 -7 3 -10 -30 -10 -33 0 -41 3 -30 10 8 5 22 10 30
10 8 0 22 -5 30 -10z m1425 0 c3 -5 1 -10 -4 -10 -6 0 -11 5 -11 10 0 6 2 10
4 10 3 0 8 -4 11 -10z m-6441 -26 c10 -4 16 -18 16 -35 0 -24 -4 -29 -25 -29
-14 0 -28 -6 -31 -14 -3 -8 -13 -12 -25 -9 -10 3 -19 0 -19 -6 0 -6 -5 -11
-11 -11 -5 0 -7 5 -4 10 3 6 1 10 -4 10 -6 0 -11 9 -11 20 0 11 4 20 9 20 6 0
22 11 37 25 28 26 41 29 68 19z m1176 2 c0 -2 -11 -6 -25 -8 -13 -3 -22 -1
-19 3 5 9 44 13 44 5z m36 -11 c8 -20 31 -19 43 3 8 13 10 14 11 2 0 -13 1
-13 10 0 8 13 12 12 31 -7 l22 -22 -33 -8 c-44 -12 -55 -38 -13 -29 20 5 34 2
41 -7 10 -12 4 -13 -40 -9 -29 3 -56 9 -60 15 -3 6 -29 11 -57 11 -35 1 -56 7
-69 20 -16 18 -16 19 1 12 47 -16 68 -17 83 -6 8 7 13 19 10 27 -3 7 -1 13 5
13 5 0 12 -7 15 -15z m5399 5 c8 -13 -15 -13 -35 0 -12 8 -11 10 7 10 12 0 25
-4 28 -10z m-5960 -10 c-3 -5 -10 -10 -16 -10 -5 0 -9 5 -9 10 0 6 7 10 16 10
8 0 12 -4 9 -10z m2315 0 c0 -5 -4 -10 -10 -10 -5 0 -10 5 -10 10 0 6 5 10 10
10 6 0 10 -4 10 -10z m-1268 -22 c-7 -7 -12 -8 -12 -2 0 14 12 26 19 19 2 -3
-1 -11 -7 -17z m-1452 2 c0 -5 -6 -10 -14 -10 -8 0 -18 5 -21 10 -3 6 3 10 14
10 12 0 21 -4 21 -10z m466 -15 c-22 -17 -46 -20 -46 -6 0 8 21 16 55 19 6 1
1 -5 -9 -13z m3274 5 c0 -5 -4 -10 -10 -10 -5 0 -10 5 -10 10 0 6 5 10 10 10
6 0 10 -4 10 -10z m-2313 -36 c-3 -3 -16 -4 -29 -2 l-23 5 25 10 c23 10 41 1
27 -13z m5123 11 c0 -8 -7 -15 -15 -15 -8 0 -15 7 -15 15 0 8 7 15 15 15 8 0
15 -7 15 -15z m40 -5 c0 -5 -4 -10 -10 -10 -5 0 -10 5 -10 10 0 6 5 10 10 10
6 0 10 -4 10 -10z m-6289 -13 c-1 -12 -15 -9 -19 4 -3 6 1 10 8 8 6 -3 11 -8
11 -12z m3117 4 c6 -1 12 -5 12 -9 0 -5 -13 -7 -28 -4 -18 2 -35 -2 -45 -13
-15 -15 -17 -15 -17 -1 0 9 -4 16 -10 16 -5 0 -10 4 -10 8 0 7 36 8 98 3z
m-2183 -22 c7 -8 -52 -18 -84 -15 -14 1 -26 7 -28 12 -3 10 102 13 112 3z
m-1015 -13 c0 -2 -9 -6 -20 -9 -11 -3 -20 -1 -20 4 0 5 9 9 20 9 11 0 20 -2
20 -4z m-225 -16 c-27 -12 -35 -12 -35 0 0 6 12 10 28 9 24 0 25 -1 7 -9z
m3483 -1 c-2 -6 -8 -10 -13 -10 -5 0 -11 4 -13 10 -2 6 4 11 13 11 9 0 15 -5
13 -11z m-5338 -29 c0 -5 -4 -10 -10 -10 -5 0 -10 5 -10 10 0 6 5 10 10 10 6
0 10 -4 10 -10z m5340 -4 c0 -3 -4 -8 -10 -11 -5 -3 -10 -1 -10 4 0 6 5 11 10
11 6 0 10 -2 10 -4z m-6000 -16 c11 -7 0 -10 -38 -10 -33 0 -51 4 -47 10 8 13
65 13 85 0z m820 -3 c0 -10 -10 -12 -32 -8 -32 4 -32 5 -8 12 37 11 40 10 40
-4z m-280 -1 c0 -3 -4 -8 -10 -11 -5 -3 -10 -1 -10 4 0 6 5 11 10 11 6 0 10
-2 10 -4z m310 -6 c0 -5 -5 -10 -11 -10 -5 0 -7 5 -4 10 3 6 8 10 11 10 2 0 4
-4 4 -10z m-353 -6 c-3 -3 -12 -4 -19 -1 -8 3 -5 6 6 6 11 1 17 -2 13 -5z
m-557 -14 c0 -5 -7 -10 -16 -10 -8 0 -12 5 -9 10 3 6 10 10 16 10 5 0 9 -4 9
-10z m25 -21 c-4 -5 -1 -9 6 -9 7 0 10 -2 8 -4 -2 -2 -26 0 -54 4 -37 5 -42 8
-18 9 17 0 35 6 38 11 4 6 11 8 16 4 5 -3 7 -10 4 -15z m8896 8 c19 -15 31
-45 20 -51 -4 -3 -13 6 -19 19 -7 14 -17 25 -24 25 -9 0 -8 -3 2 -10 13 -8 12
-10 -2 -10 -18 0 -24 20 -11 33 9 10 15 8 34 -6z m-3976 -7 c3 -5 1 -10 -4
-10 -6 0 -11 5 -11 10 0 6 2 10 4 10 3 0 8 -4 11 -10z m1095 0 c0 -5 -15 -10
-32 -10 -25 0 -29 3 -18 10 20 13 50 13 50 0z m-3293 -8 c16 -10 5 -52 -14
-52 -9 0 -13 6 -9 15 3 8 2 15 -3 15 -5 0 -11 -9 -14 -21 -3 -12 -12 -19 -19
-17 -22 8 -15 42 12 55 29 15 31 15 47 5z m3837 -23 c20 -12 33 -25 30 -30 -3
-5 -10 -6 -16 -3 -6 4 -28 6 -49 6 -44 -2 -56 10 -33 32 20 21 26 20 68 -5z
m-6594 1 c0 -5 -5 -10 -11 -10 -5 0 -7 5 -4 10 3 6 8 10 11 10 2 0 4 -4 4 -10z
m6278 -12 c15 -15 16 -28 2 -28 -5 0 -10 6 -10 14 0 8 -6 17 -12 19 -7 3 -8 6
-2 6 5 1 15 -4 22 -11z m1852 -9 c0 -6 -4 -7 -10 -4 -5 3 -10 11 -10 16 0 6 5
7 10 4 6 -3 10 -11 10 -16z m200 -11 c0 -11 -17 -10 -41 3 -28 15 -13 31 16
17 14 -6 25 -15 25 -20z m-7405 2 c-3 -5 -12 -10 -18 -10 -7 0 -6 4 3 10 19
12 23 12 15 0z m5405 0 c0 -5 -5 -10 -11 -10 -5 0 -7 5 -4 10 3 6 8 10 11 10
2 0 4 -4 4 -10z m-7120 -10 c0 -5 -4 -10 -10 -10 -5 0 -10 5 -10 10 0 6 5 10
10 10 6 0 10 -4 10 -10z m2046 1 c-3 -5 -15 -7 -26 -4 -28 7 -25 13 6 13 14 0
23 -4 20 -9z m5254 -11 c0 -5 -7 -10 -16 -10 -8 0 -12 5 -9 10 3 6 10 10 16
10 5 0 9 -4 9 -10z m160 0 c13 -8 12 -12 -6 -29 -13 -11 -26 -16 -34 -11 -8 5
-9 10 -2 14 6 4 9 13 5 21 -6 17 14 20 37 5z m-80 -10 c0 -5 -4 -10 -10 -10
-5 0 -10 5 -10 10 0 6 5 10 10 10 6 0 10 -4 10 -10z m-487 -7 c-7 -2 -21 -2
-30 0 -10 3 -4 5 12 5 17 0 24 -2 18 -5z m2877 -3 c0 -5 -2 -10 -4 -10 -3 0
-8 5 -11 10 -3 6 -1 10 4 10 6 0 11 -4 11 -10z m-3230 -20 c0 -5 -4 -10 -10
-10 -5 0 -10 5 -10 10 0 6 5 10 10 10 6 0 10 -4 10 -10z m328 -31 c18 -6 29
-15 26 -20 -3 -5 6 -13 20 -19 33 -12 33 -26 -1 -42 -36 -18 -41 -38 -10 -38
14 0 28 -7 31 -16 4 -10 13 -13 25 -9 11 3 22 1 26 -4 8 -15 -38 -24 -83 -17
-20 3 -49 8 -64 9 -14 2 -34 11 -43 20 -9 10 -20 17 -25 17 -4 0 -10 9 -13 20
-4 15 -14 20 -40 20 -20 0 -38 4 -41 8 -9 15 6 52 21 52 8 0 12 4 8 9 -7 12
11 23 60 37 31 9 43 8 56 -2 8 -8 30 -19 47 -25z m672 31 c0 -5 -4 -10 -10
-10 -5 0 -10 5 -10 10 0 6 5 10 10 10 6 0 10 -4 10 -10z m-275 -18 c-3 -3 -11
0 -18 7 -9 10 -8 11 6 5 10 -3 15 -9 12 -12z m-3749 -19 c-10 -10 -19 5 -10
18 6 11 8 11 12 0 2 -7 1 -15 -2 -18z m3581 12 c9 -24 -1 -27 -15 -5 -8 13 -8
20 -2 20 6 0 13 -7 17 -15z m78 -5 c3 -5 1 -10 -4 -10 -6 0 -11 5 -11 10 0 6
2 10 4 10 3 0 8 -4 11 -10z m2775 0 c0 -5 -4 -10 -10 -10 -5 0 -10 5 -10 10 0
6 5 10 10 10 6 0 10 -4 10 -10z m-2295 -20 c3 -6 -1 -7 -9 -4 -18 7 -21 14 -7
14 6 0 13 -4 16 -10z m2243 -17 c34 -8 26 -23 -12 -23 -51 0 -69 9 -55 27 7 8
19 11 28 7 9 -4 26 -9 39 -11z m-9130 -5 c-3 -7 -15 -14 -29 -16 -24 -4 -24
-3 -4 12 24 19 38 20 33 4z m2682 -28 c0 -20 -5 -30 -15 -30 -18 0 -19 14 -3
40 17 26 18 25 18 -10z m3600 -23 c0 -5 6 -4 14 2 10 9 20 9 40 0 21 -10 29
-9 44 4 14 13 21 14 30 5 8 -8 5 -15 -15 -25 -15 -8 -32 -12 -39 -9 -7 3 -28
1 -46 -4 -25 -8 -34 -7 -41 5 -5 9 -22 15 -42 15 -27 0 -35 4 -35 19 0 17 4
17 45 8 25 -6 45 -15 45 -20z m-6612 11 c-3 -7 -15 -14 -29 -16 -24 -4 -24 -3
-4 12 24 19 38 20 33 4z m892 8 c0 -3 -4 -8 -10 -11 -5 -3 -10 -1 -10 4 0 6 5
11 10 11 6 0 10 -2 10 -4z m1924 -33 c-17 -17 -18 -17 -11 0 4 10 7 24 7 30 0
8 3 8 11 0 9 -9 7 -16 -7 -30z m306 17 c0 -5 -2 -10 -4 -10 -2 0 -12 -3 -22
-7 -16 -6 -17 -5 -4 10 17 19 30 22 30 7z m-451 -64 c-24 -25 -39 -25 -39 -1
0 12 12 17 54 24 4 0 -2 -10 -15 -23z m309 12 c-3 -7 -15 -15 -28 -16 -21 -3
-22 -2 -11 12 16 19 44 21 39 4z m5872 1 c0 -6 16 -25 35 -43 19 -19 35 -38
35 -45 0 -14 -1 -14 -49 7 -31 14 -38 21 -28 31 9 9 9 16 -1 31 -15 24 -15 30
-2 30 6 0 10 -5 10 -11z m-2030 -8 c0 -17 -17 -21 -51 -14 -28 5 -30 7 -14 14
28 11 65 11 65 0z m-240 -11 c0 -5 -2 -10 -4 -10 -3 0 -8 5 -11 10 -3 6 -1 10
4 10 6 0 11 -4 11 -10z m850 0 c0 -5 -9 -10 -21 -10 -11 0 -17 5 -14 10 3 6
13 10 21 10 8 0 14 -4 14 -10z m-4550 -4 c0 -11 -19 -15 -25 -6 -3 5 1 10 9
10 9 0 16 -2 16 -4z m-35 -20 c12 -12 10 -16 -13 -25 -16 -7 -39 -22 -53 -35
-36 -33 -63 -46 -98 -46 -21 0 -31 5 -31 15 0 9 -9 15 -25 15 -14 0 -25 -4
-25 -10 0 -12 -59 -44 -87 -47 -40 -3 -25 16 16 23 26 4 38 11 35 19 -3 7 2
15 12 19 16 6 15 8 -1 26 -17 19 -17 20 3 20 11 0 23 -6 25 -12 4 -9 11 -6 24
9 12 15 25 21 39 17 11 -3 36 1 55 9 44 20 106 21 124 3z m-3275 -6 c0 -5 -2
-10 -4 -10 -3 0 -8 5 -11 10 -3 6 -1 10 4 10 6 0 11 -4 11 -10z m2670 -10 c0
-11 -4 -20 -10 -20 -5 0 -10 9 -10 20 0 11 5 20 10 20 6 0 10 -9 10 -20z
m-470 -15 c0 -22 -4 -25 -34 -25 -19 0 -41 -3 -49 -6 -11 -4 -15 1 -13 20 0
14 2 26 3 26 1 0 13 -4 27 -9 18 -7 28 -6 36 5 18 21 30 17 30 -11z m550 15
c0 -5 -2 -10 -4 -10 -3 0 -8 5 -11 10 -3 6 -1 10 4 10 6 0 11 -4 11 -10z
m4335 0 c3 -5 -3 -10 -15 -10 -12 0 -18 5 -15 10 3 6 10 10 15 10 5 0 12 -4
15 -10z m820 0 c3 -5 -1 -10 -9 -10 -9 0 -16 5 -16 10 0 6 4 10 9 10 6 0 13
-4 16 -10z m1335 -11 c0 -5 -10 -9 -21 -9 -18 0 -19 2 -9 15 12 15 30 12 30
-6z m-1214 -9 c0 -11 -4 -20 -8 -20 -4 0 -8 9 -8 20 0 11 4 20 8 20 4 0 8 -9
8 -20z m-879 4 c-3 -3 -12 -4 -19 -1 -8 3 -5 6 6 6 11 1 17 -2 13 -5z m103
-10 c0 -9 -5 -14 -12 -12 -18 6 -21 28 -4 28 9 0 16 -7 16 -16z m112 -4 c12
-11 30 -20 39 -20 10 0 25 -3 35 -7 11 -4 15 -2 11 4 -10 16 19 50 33 37 8 -8
7 -14 -5 -24 -13 -11 -13 -15 7 -34 35 -34 50 -63 35 -69 -7 -3 7 -6 31 -6 30
-1 42 -5 42 -16 0 -8 6 -12 13 -9 7 2 29 -2 49 -10 35 -15 36 -16 30 -61 -4
-35 0 -50 14 -67 19 -20 19 -21 -6 -13 -38 11 -48 23 -43 49 3 14 -3 35 -13
50 -17 23 -25 25 -96 26 -72 0 -77 1 -80 23 -2 14 -9 21 -20 21 -10 -1 -16 1
-14 5 2 3 -21 6 -52 6 -55 0 -57 1 -60 28 -3 22 1 30 17 34 25 6 26 16 5 48
-20 31 -2 34 28 5z m783 10 c16 -7 11 -9 -22 -9 -23 -1 -45 4 -48 9 -8 12 42
12 70 0z m-555 -29 c0 -5 6 -9 13 -8 48 1 87 -5 87 -14 0 -6 -7 -8 -15 -5 -9
3 -18 -1 -21 -9 -3 -8 -14 -17 -25 -20 -10 -4 -19 -13 -19 -21 0 -9 -11 -14
-34 -14 -30 0 -33 2 -28 25 2 13 1 32 -2 41 -5 13 -9 14 -21 4 -9 -8 -15 -8
-15 -2 0 6 12 15 28 20 35 13 52 14 52 3z m560 -1 c0 -5 -4 -10 -10 -10 -5 0
-10 5 -10 10 0 6 5 10 10 10 6 0 10 -4 10 -10z m135 -6 c56 -9 103 -34 84 -44
-21 -11 -139 11 -139 27 0 7 -7 13 -15 13 -8 0 -15 5 -15 11 0 7 9 9 23 6 12
-3 40 -9 62 -13z m-5415 -34 c0 -5 -4 -10 -10 -10 -21 0 -9 -18 18 -26 26 -7
26 -7 -13 -16 -92 -19 -115 -20 -115 -3 0 8 7 15 15 15 8 0 15 -5 15 -11 0 -6
15 5 33 25 31 34 57 46 57 26z m-1960 -15 c0 -8 -9 -15 -20 -15 -20 0 -26 11
-13 23 12 13 33 7 33 -8z m7524 -4 c3 -5 -1 -11 -9 -15 -9 -3 -15 0 -15 9 0
16 16 20 24 6z m76 -42 c0 -11 -3 -11 -24 -3 -23 9 -20 23 4 17 11 -3 20 -9
20 -14z m-327 4 c-7 -2 -19 -2 -25 0 -7 3 -2 5 12 5 14 0 19 -2 13 -5z m-5453
-27 c0 -2 -7 -7 -16 -10 -8 -3 -12 -2 -9 4 6 10 25 14 25 6z m5016 -23 c-10
-10 -19 5 -10 18 6 11 8 11 12 0 2 -7 1 -15 -2 -18z m489 17 c-3 -5 -12 -10
-18 -10 -7 0 -6 4 3 10 19 12 23 12 15 0z m250 1 c3 -5 1 -12 -5 -16 -5 -3
-10 1 -10 9 0 18 6 21 15 7z m92 3 c-3 -3 -12 -4 -19 -1 -8 3 -5 6 6 6 11 1
17 -2 13 -5z m818 -4 c3 -5 1 -10 -4 -10 -6 0 -11 5 -11 10 0 6 2 10 4 10 3 0
8 -4 11 -10z m-9665 -20 c0 -13 -7 -20 -20 -20 -19 0 -19 1 -2 19 22 25 22 25
22 1z m8211 -3 c-13 -13 -26 -3 -16 12 3 6 11 8 17 5 6 -4 6 -10 -1 -17z
m1354 13 c3 -5 1 -10 -4 -10 -6 0 -11 5 -11 10 0 6 2 10 4 10 3 0 8 -4 11 -10z
m962 -6 c-3 -3 -12 -4 -19 -1 -8 3 -5 6 6 6 11 1 17 -2 13 -5z m-1795 -34 c-3
-8 -2 -12 3 -8 4 4 14 3 22 -3 10 -9 17 -8 28 1 12 10 15 10 15 -4 0 -17 0
-18 -47 -22 -20 -1 -39 5 -52 17 -11 10 -25 19 -31 19 -5 0 -10 4 -10 8 0 4
17 8 39 7 30 0 37 -3 33 -15z m254 4 c-3 -9 -6 -23 -7 -32 0 -10 -5 -5 -11 11
-9 26 -28 37 -28 16 0 -5 -4 -7 -10 -4 -21 13 -9 25 26 25 29 0 35 -3 30 -16z
m-858 -32 c2 -7 -3 -12 -12 -12 -9 0 -16 7 -16 16 0 17 22 14 28 -4z m-8245
-28 c-3 -9 2 -14 17 -14 15 0 20 5 17 14 -9 23 11 32 60 26 35 -4 49 -10 51
-22 3 -13 -3 -18 -21 -18 -14 0 -28 -6 -30 -12 -4 -10 -8 -9 -16 2 -7 9 -14
11 -18 5 -5 -5 -17 -15 -28 -21 -12 -6 -21 -24 -23 -41 -2 -21 -10 -33 -23
-36 -17 -4 -19 0 -19 36 0 23 3 59 6 80 5 29 9 35 20 26 7 -6 10 -17 7 -25z
m292 16 c3 -5 -1 -10 -10 -10 -9 0 -13 5 -10 10 3 6 8 10 10 10 2 0 7 -4 10
-10z m8648 -10 c3 -11 1 -20 -4 -20 -5 0 -9 9 -9 20 0 11 2 20 4 20 2 0 6 -9
9 -20z m265 -3 c6 -5 12 -16 12 -24 0 -8 13 -28 30 -45 24 -23 29 -35 24 -56
-9 -36 -17 -44 -37 -36 -24 9 -21 27 3 19 20 -6 27 5 13 19 -4 4 -8 15 -8 24
0 13 -9 17 -42 17 -24 0 -43 -4 -43 -10 0 -5 8 -10 17 -10 23 0 28 -21 6 -29
-20 -8 -52 27 -53 57 0 13 6 16 23 12 22 -5 56 9 46 20 -3 3 -25 7 -48 9 -37
3 -72 16 -43 16 7 0 12 9 12 20 0 19 4 20 38 14 20 -4 43 -11 50 -17z m1403
10 c-1 -12 -15 -9 -19 4 -3 6 1 10 8 8 6 -3 11 -8 11 -12z m-9187 -28 c-3 -5
-10 -7 -15 -3 -5 3 -7 10 -3 15 3 5 10 7 15 3 5 -3 7 -10 3 -15z m6956 11 c0
-5 -5 -10 -11 -10 -5 0 -7 5 -4 10 3 6 8 10 11 10 2 0 4 -4 4 -10z m2090 -30
c0 -16 -2 -30 -4 -30 -2 0 -6 14 -8 30 -3 17 -1 30 4 30 4 0 8 -13 8 -30z
m-9540 10 c-20 -13 -40 -13 -40 0 0 6 12 10 28 10 21 0 24 -2 12 -10z m649
-55 c6 -3 9 -11 5 -16 -7 -12 45 -1 64 14 22 17 13 0 -17 -32 -16 -17 -34 -31
-40 -31 -6 0 -11 -6 -11 -14 0 -18 -20 -25 -53 -19 -21 4 -32 -1 -48 -21 -17
-21 -24 -24 -40 -16 -14 8 -19 7 -19 -3 0 -7 -6 -22 -14 -33 -12 -15 -17 -16
-27 -7 -9 9 -9 15 0 26 9 11 8 17 -4 27 -24 20 -18 30 18 31 21 1 25 3 10 6
-31 6 -35 28 -11 69 l21 35 15 -30 c23 -48 68 -34 64 19 -1 10 0 11 4 3 3 -7
17 -13 30 -13 19 0 24 5 25 28 0 25 1 25 9 6 5 -12 13 -25 19 -29z m1288 -7
c-3 -8 -6 -5 -6 6 -1 11 2 17 5 13 3 -3 4 -12 1 -19z m-2712 -78 c3 -5 -1 -10
-10 -10 -9 0 -13 5 -10 10 3 6 8 10 10 10 2 0 7 -4 10 -10z m8362 4 c-3 -3
-12 -4 -19 -1 -8 3 -5 6 6 6 11 1 17 -2 13 -5z m83 -32 c0 -15 -2 -15 -10 -2
-13 20 -13 33 0 25 6 -3 10 -14 10 -23z m-5885 -2 c3 -5 -9 -17 -27 -26 -18
-9 -48 -33 -66 -53 -30 -32 -33 -33 -27 -11 4 14 14 29 22 33 8 5 18 19 23 32
6 15 19 25 37 28 15 2 29 5 30 6 1 0 4 -3 8 -9z m-2765 -41 c0 -10 -4 -21 -10
-24 -5 -3 -10 3 -10 13 0 12 -9 22 -22 26 -22 7 -22 7 -3 15 24 10 45 -4 45
-30z m9880 -14 c0 -5 -5 -3 -10 5 -5 8 -10 20 -10 25 0 6 5 3 10 -5 5 -8 10
-19 10 -25z m345 22 c10 -8 14 -17 8 -20 -5 -3 -17 3 -26 14 -19 22 -9 25 18
6z m-1640 -26 c9 -16 -9 -20 -23 -5 -10 12 -10 14 2 14 8 0 17 -4 21 -9z m-45
-11 c0 -5 -2 -10 -4 -10 -3 0 -8 5 -11 10 -3 6 -1 10 4 10 6 0 11 -4 11 -10z
m1490 -10 c0 -5 -5 -10 -11 -10 -5 0 -7 5 -4 10 3 6 8 10 11 10 2 0 4 -4 4
-10z m-6350 -22 c0 -20 -1 -20 -18 -5 -10 10 -22 14 -25 10 -4 -3 -7 -1 -7 5
0 7 11 12 25 12 19 0 25 -5 25 -22z m4908 0 c7 -7 12 -20 12 -29 0 -16 -2 -16
-30 -3 -16 9 -30 22 -30 30 0 17 31 19 48 2z m-8624 -7 c3 -5 -1 -14 -8 -20
-12 -10 -13 -8 -9 8 6 23 9 25 17 12z m1412 -17 c-9 -9 -20 -14 -23 -10 -4 3
2 13 13 20 25 18 31 12 10 -10z m1240 -40 c-4 -13 -13 -24 -22 -24 -8 0 -17
-7 -20 -15 -4 -8 -12 -15 -19 -15 -8 0 -11 -8 -8 -20 3 -11 0 -20 -6 -20 -6 0
-17 -11 -23 -25 -6 -14 -17 -25 -25 -25 -18 0 -17 7 13 57 26 45 25 58 -3 58
-9 0 -18 6 -20 13 -3 6 2 12 11 12 9 0 16 5 16 10 0 6 -5 10 -10 10 -6 0 -5 8
2 20 15 23 40 27 32 5 -4 -8 -1 -15 5 -15 6 0 11 5 11 10 0 18 40 11 41 -7 0
-14 2 -15 6 -3 14 42 17 45 21 21 2 -12 1 -34 -2 -47z m984 62 c0 -11 -19 -15
-25 -6 -3 5 1 10 9 10 9 0 16 -2 16 -4z m2330 -16 c0 -5 -4 -10 -10 -10 -5 0
-10 5 -10 10 0 6 5 10 10 10 6 0 10 -4 10 -10z m35 -20 c3 -5 1 -10 -4 -10 -6
0 -11 5 -11 10 0 6 2 10 4 10 3 0 8 -4 11 -10z m-35 -4 c0 -3 -4 -8 -10 -11
-5 -3 -10 -1 -10 4 0 6 5 11 10 11 6 0 10 -2 10 -4z m4360 -46 c0 -5 -4 -10
-10 -10 -5 0 -10 5 -10 10 0 6 5 10 10 10 6 0 10 -4 10 -10z m-1670 -46 c0 -8
-4 -14 -10 -14 -5 0 -10 8 -10 18 0 13 -2 14 -9 3 -5 -8 -14 -10 -22 -6 -9 6
-8 10 7 15 24 9 44 2 44 -16z m106 -5 c9 -16 -18 -30 -33 -17 -7 6 -13 14 -13
19 0 13 38 11 46 -2z m-8930 -27 c-7 -12 -46 -23 -46 -13 0 7 43 29 49 25 1
-2 0 -7 -3 -12z m749 -22 c3 -5 1 -10 -4 -10 -6 0 -11 5 -11 10 0 6 2 10 4 10
3 0 8 -4 11 -10z m2064 -27 c10 -19 9 -22 -9 -20 -13 1 -19 6 -15 15 3 7 5 19
5 24 0 14 4 10 19 -19z m6076 17 c3 -5 1 -10 -4 -10 -6 0 -11 5 -11 10 0 6 2
10 4 10 3 0 8 -4 11 -10z m-5495 -4 c0 -2 -9 -6 -20 -9 -11 -3 -18 -1 -14 4 5
9 34 13 34 5z m5350 -6 c0 -5 -9 -14 -19 -19 -15 -9 -20 -7 -24 9 -4 16 0 20
19 20 13 0 24 -4 24 -10z m-8650 -25 c0 -9 -81 -25 -93 -18 -8 5 1 10 23 14
47 9 70 10 70 4z m2135 -15 c-3 -5 -11 -10 -16 -10 -6 0 -7 5 -4 10 3 6 11 10
16 10 6 0 7 -4 4 -10z m666 -10 c26 -14 24 -30 -3 -30 -19 0 -20 2 -8 10 12 8
11 10 -7 10 -13 0 -23 5 -23 10 0 13 16 13 41 0z m5794 -20 c6 -20 25 -28 25
-11 0 5 7 11 15 15 9 3 15 0 15 -9 0 -8 -7 -15 -15 -15 -8 0 -15 -4 -15 -9 0
-5 -11 -4 -25 2 -14 7 -25 20 -25 30 0 23 17 22 25 -3z m-8847 -4 c-7 -8 -16
-12 -21 -9 -11 7 2 23 19 23 12 0 12 -2 2 -14z m-64 -37 c-8 -14 -24 -10 -24
6 0 9 6 12 15 9 8 -4 12 -10 9 -15z m8871 2 c3 -5 1 -12 -5 -16 -5 -3 -10 1
-10 9 0 18 6 21 15 7z m-5839 -17 c-3 -9 -6 -18 -6 -20 0 -2 -7 -4 -15 -4 -13
0 -13 3 -3 20 15 24 33 27 24 4z m6004 6 c0 -5 -4 -10 -10 -10 -5 0 -10 5 -10
10 0 6 5 10 10 10 6 0 10 -4 10 -10z m-231 -20 c9 -5 1 -9 -22 -12 -19 -2 -33
0 -31 4 3 4 0 8 -5 8 -6 0 -11 5 -11 10 0 10 42 4 69 -10z m-8819 -3 c0 -7 14
-18 32 -25 34 -12 52 -7 28 8 -9 6 -10 10 -3 10 31 0 24 -45 -8 -55 -10 -4
-19 -13 -19 -21 0 -8 -7 -14 -16 -14 -10 0 -14 -6 -11 -15 4 -8 2 -17 -4 -21
-7 -4 -6 -10 0 -18 6 -7 8 -16 4 -19 -3 -4 1 -7 10 -7 11 0 14 7 11 25 -3 18
0 25 11 25 9 0 14 -4 11 -8 -2 -4 -1 -14 4 -22 5 -8 5 -21 -1 -31 -7 -14 -15
-16 -39 -9 -17 5 -32 9 -35 10 -3 0 -15 5 -27 10 -19 7 -20 9 -5 9 22 1 18 20
-6 35 -13 8 -20 8 -26 -3 -7 -11 -10 -11 -17 0 -4 7 -3 14 4 17 7 2 12 10 12
18 0 8 8 26 17 40 16 25 18 25 30 8 17 -24 31 -8 15 17 -10 16 -10 24 -1 35
14 17 29 18 29 1z m8675 -7 c3 -5 1 -10 -6 -10 -7 0 -21 -8 -31 -17 -18 -16
-18 -16 -12 3 12 30 37 43 49 24z m55 6 c0 -11 -19 -15 -25 -6 -3 5 1 10 9 10
9 0 16 -2 16 -4z m2350 -25 c0 -10 -3 -21 -6 -24 -13 -12 -21 3 -17 28 6 27
23 24 23 -4z m-3117 6 c3 -7 -3 -19 -14 -25 -15 -10 -20 -8 -29 8 -6 10 -17
17 -24 14 -8 -3 -17 -1 -21 5 -4 7 9 11 38 11 28 0 47 -5 50 -13z m513 -13
c-4 -9 -9 -15 -11 -12 -3 3 -3 13 1 22 4 9 9 15 11 12 3 -3 3 -13 -1 -22z m74
22 c0 -2 -7 -6 -15 -10 -8 -3 -15 -1 -15 4 0 6 7 10 15 10 8 0 15 -2 15 -4z
m286 -42 c-5 -13 -10 -14 -18 -6 -6 6 -8 18 -4 28 5 13 10 14 18 6 6 -6 8 -18
4 -28z m-8126 16 c0 -5 -5 -10 -11 -10 -5 0 -7 5 -4 10 3 6 8 10 11 10 2 0 4
-4 4 -10z m980 0 c0 -5 -13 -10 -30 -10 -16 0 -30 5 -30 10 0 6 14 10 30 10
17 0 30 -4 30 -10z m1113 -35 c7 2 21 6 32 11 11 4 22 8 25 8 3 1 16 8 28 15
13 7 26 10 29 7 7 -7 -16 -36 -29 -36 -13 0 -38 -26 -38 -40 0 -6 -6 -10 -12
-7 -7 2 -20 0 -30 -4 -11 -6 -18 -4 -24 9 -12 28 -15 55 -7 72 5 11 8 8 11
-12 2 -15 9 -25 15 -23z m5211 36 c3 -5 -1 -11 -9 -15 -15 -6 -29 7 -18 18 9
9 21 8 27 -3z m-159 -19 c-3 -3 -18 -8 -33 -9 l-27 -3 25 13 c24 13 48 12 35
-1z m-185 -1 c0 -5 -7 -14 -15 -21 -8 -6 -14 -15 -13 -18 0 -4 0 -20 -1 -37
-1 -23 -3 -27 -11 -15 -11 16 -4 68 12 88 12 14 28 16 28 3z m40 -1 c0 -5 -7
-10 -15 -10 -8 0 -15 5 -15 10 0 6 7 10 15 10 8 0 15 -4 15 -10z m-7180 -10
c0 -5 -2 -10 -4 -10 -3 0 -8 5 -11 10 -3 6 -1 10 4 10 6 0 11 -4 11 -10z
m10447 4 c-3 -3 -12 -4 -19 -1 -8 3 -5 6 6 6 11 1 17 -2 13 -5z m-8391 -84 c6
0 21 -10 33 -21 l23 -22 -6 21 c-6 17 -2 23 18 28 14 3 30 3 35 -1 6 -3 20 -1
32 6 16 8 27 8 45 -2 31 -16 30 -24 -6 -66 -16 -18 -30 -38 -30 -43 0 -6 -11
-10 -25 -10 -15 0 -25 -6 -25 -14 0 -8 -12 -17 -27 -19 -26 -4 -25 -4 5 -6 19
0 31 -5 27 -11 -10 -17 -61 -11 -86 10 l-24 19 26 1 c18 0 29 8 37 25 9 20 17
24 35 20 16 -4 30 2 51 24 29 30 30 55 2 32 -11 -9 -15 -9 -18 0 -3 9 -17 7
-49 -9 -24 -12 -59 -25 -77 -28 -30 -6 -32 -5 -30 17 2 13 8 27 13 32 6 4 3
11 -7 18 -10 5 -18 15 -18 21 0 6 8 4 18 -5 10 -10 23 -17 28 -17z m6059 -17
c-3 -20 -12 -44 -20 -53 -8 -9 -15 -24 -15 -33 0 -23 -9 -21 -36 8 -13 14 -29
25 -35 25 -7 0 -9 3 -6 7 4 3 2 12 -4 20 -9 10 -8 13 5 13 9 0 16 -6 16 -14 0
-13 4 -13 28 -1 15 8 27 18 27 23 0 10 28 41 38 42 5 0 6 -17 2 -37z m2125 -3
c12 -8 11 -10 -7 -10 -13 0 -23 5 -23 10 0 13 11 13 30 0z m-2913 -46 c-3 -3
-12 -4 -19 -1 -8 3 -5 6 6 6 11 1 17 -2 13 -5z m-5227 -34 c0 -5 -4 -10 -10
-10 -5 0 -10 5 -10 10 0 6 5 10 10 10 6 0 10 -4 10 -10z m5450 -40 c0 -5 -6
-10 -14 -10 -8 0 -18 5 -21 10 -3 6 3 10 14 10 12 0 21 -4 21 -10z m-6730 -9
c0 -11 -40 -22 -54 -14 -5 4 -1 10 10 14 27 11 44 11 44 0z m5300 -7 c0 -2 -7
-4 -15 -4 -8 0 -15 4 -15 10 0 5 7 7 15 4 8 -4 15 -8 15 -10z m-4965 -4 c3 -5
-1 -10 -9 -10 -9 0 -16 5 -16 10 0 6 4 10 9 10 6 0 13 -4 16 -10z m725 6 c0
-3 -4 -8 -10 -11 -5 -3 -10 -1 -10 4 0 6 5 11 10 11 6 0 10 -2 10 -4z m6247
-13 c3 -10 13 -26 21 -36 20 -23 10 -30 -22 -16 -19 9 -26 20 -26 41 0 31 17
38 27 11z m-342 -43 c-3 -5 -10 -10 -16 -10 -5 0 -9 5 -9 10 0 6 7 10 16 10 8
0 12 -4 9 -10z m129 -19 c3 -5 -1 -14 -9 -21 -16 -14 -79 -4 -69 11 3 5 14 7
24 4 10 -3 21 -1 25 5 8 12 22 13 29 1z m-1650 -70 c-1 -17 2 -31 8 -31 5 0 7
-4 4 -8 -10 -17 -73 -12 -96 8 -21 18 -22 23 -10 45 14 26 43 35 75 24 15 -5
20 -15 19 -38z m1680 37 c-5 -8 -2 -9 9 -5 9 3 19 2 22 -4 10 -15 -24 -22 -41
-9 -12 11 -12 15 -2 21 18 12 20 11 12 -3z m-2644 -28 c0 -5 -4 -10 -10 -10
-5 0 -10 5 -10 10 0 6 5 10 10 10 6 0 10 -4 10 -10z m-3530 -4 c0 -3 -4 -8
-10 -11 -5 -3 -10 -1 -10 4 0 6 5 11 10 11 6 0 10 -2 10 -4z m3240 -5 c0 -12
-29 -23 -41 -15 -18 10 -9 24 16 24 14 0 25 -4 25 -9z m-4627 -28 c4 -3 -3
-13 -15 -21 -25 -18 -108 -33 -108 -20 0 4 5 8 10 8 6 0 10 5 10 10 0 6 -11 8
-25 4 -16 -4 -25 -2 -25 6 0 6 4 9 9 6 5 -4 20 -2 33 3 27 11 102 14 111 4z
m756 -5 c19 -12 19 -12 -1 -30 -26 -22 -37 -23 -44 -3 -4 8 -13 15 -21 15 -8
0 -12 4 -9 9 3 5 15 7 26 4 11 -3 20 0 20 6 0 14 6 14 29 -1z m6961 2 c0 -5
-2 -10 -4 -10 -3 0 -8 5 -11 10 -3 6 -1 10 4 10 6 0 11 -4 11 -10z m-4263 -6
c-3 -3 -12 -4 -19 -1 -8 3 -5 6 6 6 11 1 17 -2 13 -5z m756 -5 c-5 -5 -22 -5
-38 0 -30 9 -30 9 8 8 21 0 34 -4 30 -8z m-910 -23 c26 1 47 -3 47 -7 0 -14
-57 -39 -87 -40 -16 0 -44 -1 -63 -3 -19 -2 -41 -4 -47 -5 -7 0 -12 -6 -10
-13 1 -6 -7 -14 -17 -16 -14 -3 -17 0 -13 12 4 9 2 16 -3 16 -6 0 -10 -4 -10
-9 0 -11 -57 -41 -78 -41 -8 0 -12 6 -8 15 4 10 -1 15 -15 15 -12 0 -19 5 -16
13 2 7 20 11 43 10 21 -1 31 1 22 4 -24 6 -23 13 10 40 25 22 32 23 112 16 47
-5 106 -8 133 -7z m607 -2 c0 -2 -9 -4 -21 -4 -11 0 -18 4 -14 10 5 8 35 3 35
-6z m-350 -14 c0 -5 -18 -10 -40 -10 -22 0 -40 5 -40 10 0 6 18 10 40 10 22 0
40 -4 40 -10z m-3950 -30 c0 -5 -5 -10 -11 -10 -5 0 -7 5 -4 10 3 6 8 10 11
10 2 0 4 -4 4 -10z m1535 0 c3 -5 1 -10 -4 -10 -6 0 -11 5 -11 10 0 6 2 10 4
10 3 0 8 -4 11 -10z m-1876 -77 c13 -10 9 -12 -26 -13 -23 0 -45 5 -48 10 -3
6 -48 10 -98 10 -123 0 -95 15 35 18 56 2 105 6 108 8 2 3 7 -1 9 -8 2 -7 11
-18 20 -25z m3641 33 c0 -9 -30 -14 -35 -6 -4 6 3 10 14 10 12 0 21 -2 21 -4z
m-1910 -16 c0 -13 -11 -13 -30 0 -12 8 -11 10 8 10 12 0 22 -4 22 -10z m-459
-28 c-7 -2 -18 1 -23 6 -8 8 -4 9 13 5 13 -4 18 -8 10 -11z m209 2 c0 -2 -9
-4 -21 -4 -11 0 -18 4 -14 10 5 8 35 3 35 -6z m2850 6 c0 -5 -5 -10 -11 -10
-5 0 -7 5 -4 10 3 6 8 10 11 10 2 0 4 -4 4 -10z m-3187 -26 c-18 -8 -33 -18
-33 -23 0 -5 -7 -11 -15 -15 -11 -4 -15 2 -15 20 0 14 4 23 9 19 5 -3 12 -1
16 5 3 5 21 10 38 9 l32 -1 -32 -14z m3597 -23 c0 -11 -49 -21 -55 -10 -3 4 3
10 12 12 30 8 43 7 43 -2z m-4176 -20 c-19 -18 -44 -18 -44 1 0 6 7 8 15 5 8
-4 17 -2 20 3 4 6 11 10 17 10 6 0 3 -8 -8 -19z m2966 9 c0 -5 -4 -10 -10 -10
-5 0 -10 5 -10 10 0 6 5 10 10 10 6 0 10 -4 10 -10z m1300 0 c0 -5 -4 -10 -10
-10 -5 0 -10 5 -10 10 0 6 5 10 10 10 6 0 10 -4 10 -10z m-3790 -30 c-8 -5
-19 -10 -25 -10 -5 0 -3 5 5 10 8 5 20 10 25 10 6 0 3 -5 -5 -10z m3440 0 c0
-5 -8 -10 -17 -10 -15 0 -16 2 -3 10 19 12 20 12 20 0z m-3978 -12 c-6 -6 -8
-18 -4 -27 11 -24 8 -54 -6 -59 -7 -2 -13 5 -13 17 -5 77 -4 81 16 81 14 0 16
-3 7 -12z m7742 -19 c6 -5 2 -11 -7 -15 -18 -6 -67 20 -67 36 0 10 58 -7 74
-21z m-7319 11 c-3 -5 -13 -10 -21 -10 -8 0 -12 5 -9 10 3 6 13 10 21 10 8 0
12 -4 9 -10z m2275 0 c0 -5 -7 -10 -15 -10 -8 0 -15 5 -15 10 0 6 7 10 15 10
8 0 15 -4 15 -10z m3576 -50 c14 0 22 -4 19 -10 -7 -12 -51 -3 -81 17 -11 7
-24 10 -27 6 -4 -3 -7 0 -7 9 0 27 12 28 42 3 16 -14 41 -25 54 -25z m-9 -42
c-3 -8 -6 -5 -6 6 -1 11 2 17 5 13 3 -3 4 -12 1 -19z m-4037 3 c0 -12 -20 -25
-27 -18 -7 7 6 27 18 27 5 0 9 -4 9 -9z m4093 -2 c-8 -8 -16 -8 -30 0 -16 9
-14 10 12 11 21 0 26 -3 18 -11z m-6073 -17 c0 -10 -41 -35 -47 -28 -11 11 7
36 27 36 11 0 20 -3 20 -8z m3626 -4 c4 -6 3 -8 -4 -4 -6 3 -15 -2 -21 -11 -9
-15 -10 -15 -11 -2 0 28 23 39 36 17z m-1783 -22 c16 -12 16 -14 1 -20 -20 -8
-62 -8 -93 1 l-23 6 28 13 c38 16 65 16 87 0z m4284 -18 c-3 -7 -5 -2 -5 12 0
14 2 19 5 13 2 -7 2 -19 0 -25z m-4007 8 c0 -3 -4 -8 -10 -11 -5 -3 -10 -1
-10 4 0 6 5 11 10 11 6 0 10 -2 10 -4z m2117 -2 c-3 -3 -12 -4 -19 -1 -8 3 -5
6 6 6 11 1 17 -2 13 -5z m-2517 -32 c0 -11 -59 -34 -70 -27 -18 11 -11 21 23
31 32 10 47 9 47 -4z m-1910 -79 c-1 -5 -16 -15 -35 -24 -25 -12 -35 -13 -35
-4 0 6 10 17 23 23 26 13 47 15 47 5z m149 -45 c1 -5 -11 -7 -26 -7 -17 1 -21
3 -10 6 9 2 17 14 18 26 0 21 1 21 9 2 5 -11 9 -23 9 -27z m1681 -48 c0 -5 -5
-10 -11 -10 -5 0 -7 5 -4 10 3 6 8 10 11 10 2 0 4 -4 4 -10z m-865 -46 c0 -28
-4 -39 -15 -39 -9 0 -13 6 -11 15 3 8 4 28 3 43 -1 18 3 27 11 24 7 -2 12 -21
12 -43z m5245 14 c0 -13 -50 -42 -58 -34 -2 3 -1 14 3 25 7 23 55 30 55 9z
m-1970 -8 c0 -5 -8 -10 -17 -10 -15 0 -16 2 -3 10 19 12 20 12 20 0z m-2700
-80 c-19 -12 -30 -12 -30 -1 0 10 31 20 40 14 2 -2 -2 -8 -10 -13z m1712 -12
c-7 -7 -12 -8 -12 -2 0 14 12 26 19 19 2 -3 -1 -11 -7 -17z m-1948 -69 c-3 -5
-10 -7 -15 -3 -5 3 -7 10 -3 15 3 5 10 7 15 3 5 -3 7 -10 3 -15z"/>
<path d="M13345 3340 c3 -5 8 -10 11 -10 2 0 4 5 4 10 0 6 -5 10 -11 10 -5 0
-7 -4 -4 -10z"/>
<path d="M13965 2541 c-3 -5 -1 -12 5 -16 5 -3 10 1 10 9 0 18 -6 21 -15 7z"/>
<path d="M14625 2270 c-3 -5 -1 -10 4 -10 6 0 11 5 11 10 0 6 -2 10 -4 10 -3
0 -8 -4 -11 -10z"/>
<path d="M8145 2040 c3 -5 8 -10 11 -10 2 0 4 5 4 10 0 6 -5 10 -11 10 -5 0
-7 -4 -4 -10z"/>
<path d="M6240 1460 c0 -13 5 -18 15 -14 8 4 15 10 15 14 0 4 -7 10 -15 14
-10 4 -15 -1 -15 -14z"/>
<path d="M10860 4296 c0 -24 15 -26 28 -5 11 16 9 19 -8 19 -11 0 -20 -6 -20
-14z"/>
</g>
</svg>
