<?xml version="1.0" encoding="utf-8"?>
<!-- Generator: Adobe Illustrator 25.2.1, SVG Export Plug-In . SVG Version: 6.00 Build 0)  -->
<svg version="1.1" id="Ebene_1" xmlns="http://www.w3.org/2000/svg" xmlns:xlink="http://www.w3.org/1999/xlink" x="0px" y="0px"
	 viewBox="0 0 359 81" style="enable-background:new 0 0 359 81;" xml:space="preserve">
<style type="text/css">
	.st0{fill:#C7B05A;}
	.st1{fill:#FFFFFF;}
</style>
<g>
	<g>
		<path class="st0" d="M26.2,80.5c-0.1,0-0.2-0.1-0.2-0.2l0.1-6.5l-0.1-6.5c0-0.1,0.1-0.2,0.2-0.2h8.7c0.1,0,0.2,0.1,0.2,0.2v1.8
			c0,0.1-0.1,0.2-0.2,0.2H29l0,3.6h5.7c0.1,0,0.2,0.1,0.2,0.2V75c0,0.1-0.1,0.2-0.2,0.2H29l0,5.2c0,0.1-0.1,0.2-0.2,0.2H26.2z"/>
		<path class="st0" d="M48.8,80.8c-4.1,0-6.7-2.8-6.7-6.9c0-4.2,2.6-7,6.7-7c4,0,6.7,2.7,6.7,7C55.5,78,52.9,80.8,48.8,80.8z
			 M48.8,78.6c2.4,0,3.7-1.8,3.7-4.7c0-2.9-1.3-4.7-3.7-4.7s-3.7,1.8-3.7,4.7C45.1,76.8,46.4,78.6,48.8,78.6z"/>
		<path class="st0" d="M69,77.6l-1.3-2h-1.9l0,4.8c0,0.1-0.1,0.2-0.2,0.2h-2.6c-0.1,0-0.2-0.1-0.2-0.2l0-6.5l0-6.5
			c0-0.1,0.1-0.2,0.2-0.2h5.4c3.3,0,5.2,1.4,5.2,4.2c0,2-1.1,3.3-3,3.9l3.3,5.1c0,0.1,0,0.1-0.1,0.1h-3.1c-0.1,0-0.2-0.1-0.2-0.1
			L69,77.6z M68.6,69.4h-2.8l0,4.1h2.9c1.2,0,2.3-0.6,2.3-2C70.9,70,70.1,69.4,68.6,69.4z"/>
		<path class="st0" d="M86.6,80.8c-3.5,0-5.4-1.8-5.4-5.2V72l0-4.6c0-0.1,0.1-0.2,0.2-0.2H84c0.1,0,0.2,0.1,0.2,0.2l0,4.5v3.7
			c0,1.9,0.8,2.9,2.5,2.9c1.9,0,2.7-1,2.7-2.9V72l0-4.6c0-0.1,0.1-0.2,0.2-0.2h2.4c0.1,0,0.2,0.1,0.2,0.2l0,4.6v3.6
			C91.9,79,90.1,80.8,86.6,80.8z"/>
		<path class="st0" d="M102.1,74.4v5.9c0,0.1-0.1,0.2-0.2,0.2h-2.3c-0.1,0-0.2-0.1-0.2-0.2l0-6.5l0-6.5c0-0.1,0.1-0.2,0.2-0.2h3.5
			c0.1,0,0.2,0.1,0.2,0.2l3.5,9.6l3.3-9.6c0-0.1,0.1-0.2,0.2-0.2h3.3c0.1,0,0.2,0.1,0.2,0.2l0,6.5l0,6.5c0,0.1-0.1,0.2-0.2,0.2h-2.6
			c-0.1,0-0.2-0.1-0.2-0.2v-5.9l0.1-2.7v-0.6l-3.2,9.2c0,0.1-0.1,0.2-0.2,0.2h-2c-0.1,0-0.2-0.1-0.2-0.2l-3.5-9.6l0,1L102.1,74.4z"
			/>
		<path class="st0" d="M132.2,80.5c-0.1,0-0.2-0.1-0.2-0.2l0.1-6.5l-0.1-6.5c0-0.1,0.1-0.2,0.2-0.2h2.6c0.1,0,0.2,0.1,0.2,0.2l0,6.3
			l0,4.7h5.4c0.1,0,0.2,0.1,0.2,0.2v1.8c0,0.1-0.1,0.2-0.2,0.2H132.2z"/>
		<path class="st0" d="M147.9,80.5c-0.1,0-0.2-0.1-0.2-0.2l0.1-6.5l-0.1-6.5c0-0.1,0.1-0.2,0.2-0.2h9c0.1,0,0.2,0.1,0.2,0.2v1.8
			c0,0.1-0.1,0.2-0.2,0.2h-6.2l0,3.1h5.7c0.1,0,0.2,0.1,0.2,0.2v1.8c0,0.1-0.1,0.2-0.2,0.2h-5.7l0,3.8h6.4c0.1,0,0.2,0.1,0.2,0.2
			v1.8c0,0.1-0.1,0.2-0.2,0.2H147.9z"/>
		<path class="st0" d="M170.5,80.5h-5.8c-0.1,0-0.2-0.1-0.2-0.2l0.1-6.5l-0.1-6.5c0-0.1,0.1-0.2,0.2-0.2h5.7c2.7,0,4.7,1,4.7,3.3
			c0,1.6-0.8,2.5-2.3,2.9c1.8,0.4,2.7,1.6,2.7,3C175.5,79.4,173,80.5,170.5,80.5z M167.4,72.6h3c1.1,0,1.8-0.6,1.8-1.7
			c0-1.2-0.8-1.7-1.8-1.7h-3L167.4,72.6z M167.4,78.5h3c1.2,0,2.1-0.5,2.1-2c0-1.4-1-1.9-2.1-1.9h-3L167.4,78.5z"/>
		<path class="st0" d="M183,80.5c-0.1,0-0.2-0.1-0.2-0.2l0.1-6.5l-0.1-6.5c0-0.1,0.1-0.2,0.2-0.2h9c0.1,0,0.2,0.1,0.2,0.2v1.8
			c0,0.1-0.1,0.2-0.2,0.2h-6.2l0,3.1h5.7c0.1,0,0.2,0.1,0.2,0.2v1.8c0,0.1-0.1,0.2-0.2,0.2h-5.7l0,3.8h6.4c0.1,0,0.2,0.1,0.2,0.2
			v1.8c0,0.1-0.1,0.2-0.2,0.2H183z"/>
		<path class="st0" d="M202.3,74.2v6.2c0,0.1-0.1,0.2-0.2,0.2h-2.4c-0.1,0-0.2-0.1-0.2-0.2l0-6.5l0-6.5c0-0.1,0.1-0.2,0.2-0.2h3.2
			c0.1,0,0.2,0.1,0.2,0.1l5.3,9.4l-0.1-2.5v-6.8c0-0.1,0.1-0.2,0.2-0.2h2.4c0.1,0,0.2,0.1,0.2,0.2l0,6.5l0,6.5
			c0,0.1-0.1,0.2-0.2,0.2h-3.3c-0.1,0-0.2-0.1-0.2-0.1l-5.2-9.3l0,0.4L202.3,74.2z"/>
		<path class="st0" d="M224.4,80.8c-3.5,0-5.9-1.5-6-4.6c0-0.1,0.1-0.2,0.2-0.2h2.7c0.1,0,0.2,0.1,0.2,0.2c0.2,1.5,0.9,2.5,3,2.5
			c1.7,0,2.7-0.5,2.7-1.8c0-3-8.5-0.6-8.5-5.9c0-2.5,1.9-4,5.3-4c3.1,0,5.3,1.2,5.7,4.1c0,0.1-0.1,0.2-0.1,0.2h-2.7
			c-0.1,0-0.2-0.1-0.2-0.2c-0.1-1.2-1.1-1.9-2.7-1.9c-1.4,0-2.4,0.5-2.4,1.6c0,2.8,8.5,0.5,8.5,5.8
			C230.1,79.3,227.9,80.8,224.4,80.8z"/>
		<path class="st0" d="M243.5,78.1l-2.1-3.2l-1.1,1.4l0,4.1c0,0.1-0.1,0.2-0.2,0.2h-2.6c-0.1,0-0.2-0.1-0.2-0.2l0.1-6.5l0-6.5
			c0-0.1,0.1-0.2,0.2-0.2h2.6c0.1,0,0.2,0.1,0.2,0.2l0,5.4l3.9-5.4c0.1-0.1,0.2-0.1,0.2-0.1h3.1c0.1,0,0.1,0.1,0.1,0.1l-4.3,5.3
			l5.4,7.7c0,0.1,0,0.1-0.1,0.1h-3.3c-0.1,0-0.2-0.1-0.2-0.1L243.5,78.1z"/>
		<path class="st0" d="M260,80.8c-3.5,0-5.4-1.8-5.4-5.2V72l0-4.6c0-0.1,0.1-0.2,0.2-0.2h2.7c0.1,0,0.2,0.1,0.2,0.2l0,4.5v3.7
			c0,1.9,0.8,2.9,2.5,2.9c1.9,0,2.7-1,2.7-2.9V72l0-4.6c0-0.1,0.1-0.2,0.2-0.2h2.4c0.1,0,0.2,0.1,0.2,0.2l0,4.6v3.6
			C265.3,79,263.5,80.8,260,80.8z"/>
		<path class="st0" d="M275.6,74.2v6.2c0,0.1-0.1,0.2-0.2,0.2H273c-0.1,0-0.2-0.1-0.2-0.2l0-6.5l0-6.5c0-0.1,0.1-0.2,0.2-0.2h3.2
			c0.1,0,0.2,0.1,0.2,0.1l5.3,9.4l-0.1-2.5v-6.8c0-0.1,0.1-0.2,0.2-0.2h2.4c0.1,0,0.2,0.1,0.2,0.2l0,6.5l0,6.5
			c0,0.1-0.1,0.2-0.2,0.2h-3.3c-0.1,0-0.2-0.1-0.2-0.1l-5.2-9.3l0,0.4L275.6,74.2z"/>
		<path class="st0" d="M297.7,80.8c-3.5,0-5.9-1.5-6-4.6c0-0.1,0.1-0.2,0.2-0.2h2.7c0.1,0,0.2,0.1,0.2,0.2c0.2,1.5,0.9,2.5,3,2.5
			c1.7,0,2.7-0.5,2.7-1.8c0-3-8.5-0.6-8.5-5.9c0-2.5,1.9-4,5.3-4c3.1,0,5.3,1.2,5.7,4.1c0,0.1-0.1,0.2-0.1,0.2h-2.7
			c-0.1,0-0.2-0.1-0.2-0.2c-0.1-1.2-1.1-1.9-2.7-1.9c-1.4,0-2.4,0.5-2.4,1.6c0,2.8,8.5,0.5,8.5,5.8
			C303.4,79.3,301.2,80.8,297.7,80.8z"/>
		<path class="st0" d="M313.7,80.5c-0.1,0-0.2-0.1-0.2-0.2l0.1-6.5l-0.1-4.5h-3.7c-0.1,0-0.2-0.1-0.2-0.2v-1.8
			c0-0.1,0.1-0.2,0.2-0.2h10.3c0.1,0,0.2,0.1,0.2,0.2v1.8c0,0.1-0.1,0.2-0.2,0.2h-3.7l-0.1,4.5l0.1,6.5c0,0.1-0.1,0.2-0.2,0.2H313.7
			z"/>
	</g>
	<g>
		<path class="st1" d="M342.3,23.6l1.7-9.4h-10.3V5.4L320.6,7v25.2c0,2.7,0.2,5,0.6,6.8c0.4,1.8,1.1,3.2,2.2,4.2
			c1.1,1,2.5,1.7,4.4,2.1c1.9,0.4,4.3,0.6,7.3,0.6c1.4,0,2.6,0,3.6,0c1,0,1.9-0.1,2.7-0.1l1.8-9.9c-0.8,0-1.6,0.1-2.4,0.1
			c-0.7,0-1.7,0-3,0c-0.8,0-1.5-0.1-2.1-0.2c-0.5-0.1-1-0.3-1.3-0.6c-0.3-0.3-0.5-0.7-0.6-1.2c-0.1-0.5-0.1-1.1-0.1-1.9v-8.7H342.3z
			 M303,45.8h13.1V3.4H303V45.8z M287.1,22.8c0.5,0.5,0.8,1.6,0.8,3.2h-6.7c0-1.6,0.3-2.7,0.8-3.2c0.5-0.5,1.4-0.8,2.5-0.8
			C285.7,22,286.6,22.3,287.1,22.8 M282.2,36.2c-0.7-0.6-1-1.5-1-2.9H293c1.3,0,2.4-0.1,3.2-0.4c0.8-0.3,1.5-0.7,1.9-1.2
			c0.5-0.6,0.8-1.3,1-2.1c0.2-0.9,0.3-1.9,0.3-3v-1.1c0-2.3-0.3-4.2-1-5.8c-0.7-1.6-1.6-2.8-2.9-3.8c-1.3-1-2.8-1.7-4.7-2.1
			c-1.9-0.4-4-0.7-6.4-0.7c-2.7,0-5,0.3-7,0.8c-2,0.5-3.6,1.4-4.9,2.6c-1.3,1.2-2.3,2.8-2.9,4.7c-0.6,1.9-1,4.3-1,7v3.2
			c0,2.6,0.3,4.9,0.8,6.7c0.6,1.8,1.5,3.3,2.7,4.4c1.3,1.1,2.9,2,4.8,2.4c2,0.5,4.4,0.7,7.2,0.7c2.3,0,4.5,0,6.6,0
			c2.1,0,3.9-0.1,5.4-0.1l1.6-8.8c-1.8,0-3.7,0.1-5.7,0.1h-6.3C284.1,37.1,282.9,36.8,282.2,36.2 M233.6,3.3l-5.3,27.3l-4.2-27.3
			h-14.4l10.2,42.5h15.3l4.4-22.9l4.5,22.9h14.8l10.2-42.5h-13.6l-4.2,27.4L246,3.3H233.6z"/>
	</g>
	<g>
		<path class="st1" d="M353.3,13c-3.3,0-5.5-2.3-5.5-5.9c0-3.7,2.2-5.9,5.5-5.9c3.3,0,5.4,2.2,5.4,5.9C358.7,10.8,356.6,13,353.3,13
			z M353.3,12.3c2.9,0,4.6-1.9,4.6-5.1c0-3.2-1.7-5.2-4.6-5.2c-2.9,0-4.7,2-4.7,5.2C348.6,10.4,350.4,12.3,353.3,12.3z M354.6,9.9
			l-1.4-2.1h-1.5l0,2.9c0,0.1-0.1,0.2-0.2,0.2h-0.6c-0.1,0-0.2-0.1-0.2-0.2v-7c0-0.1,0.1-0.2,0.2-0.2h2.3c1.7,0,2.9,0.7,2.9,2.1
			c0,1.2-0.7,1.9-1.8,2.1l1.9,3c0.1,0.1,0,0.2-0.1,0.2h-0.8c-0.1,0-0.2-0.1-0.3-0.2L354.6,9.9z M351.7,7L351.7,7l1.7,0
			c1.2,0,1.8-0.4,1.8-1.4c0-0.9-0.6-1.4-1.8-1.4h-1.6L351.7,7z"/>
	</g>
	<g>
		<path class="st1" d="M41,4.6l-5.6,1.2V47H33L7.8,8.2V44l5.6,1.2v1.2H0.3v-1.2L5.9,44V5.8L0.3,4.6V3.4h10.3l23,35.3v-33l-5.6-1.2
			V3.4h13V4.6z"/>
		<path class="st1" d="M68.2,36c0,6.1-4,11.2-11.8,11.2c-9.2,0-14.3-6.4-14.3-15.6c0-10.2,5.9-16.3,14.8-16.3
			c6.7,0,10.7,3.8,10.7,11.7c0,1-0.1,1.5-0.1,2.2H47.5c-0.1,0.6-0.1,1.2-0.1,1.9c0,10,5.4,13.1,10.9,13.1c5.9,0,8.7-3.8,8.7-8.8
			v-0.3h1C68.1,35.7,68.2,35.8,68.2,36z M47.6,27.8h15.6c0.1-0.7,0.1-1,0.1-1.8c0-4.7-1.2-9.2-6.2-9.2
			C51.9,16.8,48.4,21.2,47.6,27.8z"/>
		<path class="st1" d="M70.6,45.4l3.9-0.8V3.2l-4,0.1v-1L79,0.2l0.4,0.2v44.3l4,0.8v1H70.6V45.4z"/>
		<path class="st1" d="M88,34.5v-17h-3.8v-1c4.3,0,7.7-5.2,7.7-9.8h1V16h11.3v1.4H92.9v16.1c0,7.2,1.1,10.9,5,10.9c3.1,0,5-2.3,5-7
			v-0.9h1.2v1.2c0,4.9-2.3,9.4-7.9,9.4C89.8,47.2,88,42,88,34.5z"/>
		<path class="st1" d="M106.4,45.4l3.9-0.8V17.9l-4,0.3v-1l8.3-2l0.5,0.3v29.2l4,0.8v1h-12.7V45.4z M108.6,6c0-1.8,1.4-3.2,3.2-3.2
			c1.8,0,3.3,1.4,3.3,3.2c0,1.8-1.4,3.4-3.3,3.3C110,9.3,108.6,7.8,108.6,6z"/>
		<path class="st1" d="M121,45.4l3.9-0.8V17.9l-4,0.4v-1l8.3-2l0.4,0.3v9.7h0.3c1.7-4.7,5.7-10,13.1-10c6.9,0,7.6,5.8,7.6,11.6v17.8
			l3.9,0.8v1h-12.8v-1l4-0.8V26.8c0-6.3-1.6-8.6-5.2-8.6c-5.5,0-9.1,5.7-10.7,10.5v15.9l4,0.8v1H121V45.4z"/>
		<path class="st1" d="M182.8,49.4c0,5.5-4.9,10.7-14.7,10.7c-8.5,0-12.4-4-12.4-8.2c0-2.5,1.6-4.3,3.8-4.3c1.8,0,2.6,1.2,2.7,2.5
			c-1.7,0.3-2.8,1.4-2.8,3.2c0,3.8,3.9,5.6,8.9,5.6c7.8,0,11.3-3.6,11.3-7.2c0-9-21.8-2-21.8-11.6c0-2.8,1.8-4.8,3.9-6.2
			c-2.9-1.8-4.6-4.7-4.6-8.5c0-6.2,4.5-10.2,11.5-10.2c2.7,0,5,0.6,6.8,1.6c2-1.4,2.6-2.7,2.6-4.2c0-2.5-2-3.1-3.4-2.9
			c0-1.8,1.1-3.3,3.1-3.3c2.1,0,3.5,1.8,3.5,4.2c0,2.7-2.1,5.3-4.9,6.8c2.5,1.8,3.8,4.5,3.8,7.9c0,6.3-4.7,10.2-11.5,10.2
			c-2.1,0-4-0.4-5.7-1c-1.2,0.7-2.7,2-2.7,3.4C160.2,43.6,182.8,37.2,182.8,49.4z M162.1,25.3c0,4.4,1.7,9,6.5,9
			c4.8,0,6.5-4.6,6.5-9.2c0-5.1-2.3-8.6-6.5-8.6C164.3,16.5,162.1,20.1,162.1,25.3z"/>
		<path class="st1" d="M203.3,40.2c0-7.7-17.8-7.4-17.8-16.6c0-4.6,4.3-8.3,11.3-8.3c6.5,0,9.3,3.4,9.3,6.7c0,2-1.1,3.7-3.1,3.7
			c-1.6,0-2.9-1-3.2-2.4c1.2-0.6,2.2-1.4,2.2-2.9c0-2.2-2.3-3.8-5.9-3.8c-4.4,0-6.9,2-6.9,4.8c0,7.6,17.8,6.7,17.8,16.9
			c0,4.7-4.2,8.9-12.4,8.9c-7.2,0-10.3-3.6-10.3-7.2c0-2.4,1.4-4.2,3.6-4.2c1.6,0,2.6,0.8,2.9,2.2c-1.5,0.7-2.3,1.7-2.3,3.2
			c0,2.4,2,4.7,6.9,4.7C200.6,45.8,203.3,43.1,203.3,40.2z"/>
	</g>
</g>
</svg>
